<svg width="913" height="337" viewBox="0 0 913 337" fill="none" xmlns="http://www.w3.org/2000/svg">
<path fill-rule="evenodd" clip-rule="evenodd" d="M169.622 7.21803H770.478C785.562 7.21803 797.789 19.4469 797.789 34.5319V39.9909H804.292V34.5319C804.292 15.8552 789.153 0.714722 770.478 0.714722H169.622C150.947 0.714722 135.807 15.8552 135.807 34.5319V39.9909H142.31V34.5319C142.31 19.4469 154.538 7.21803 169.622 7.21803ZM142.31 230.86H135.807V302.468C135.807 321.145 150.947 336.285 169.622 336.285H770.478C789.153 336.285 804.292 321.145 804.292 302.468V230.86H797.789V302.468C797.789 317.553 785.562 329.782 770.478 329.782H169.622C154.538 329.782 142.31 317.553 142.31 302.468V230.86Z" fill="black"/>
<path d="M69.3874 201.919C56.1021 201.919 44.1774 199.089 33.6133 193.429C23.0491 187.769 14.8058 179.925 8.8835 169.898C2.96117 159.71 0 148.228 0 135.452C0 122.676 2.96117 111.275 8.8835 101.248C14.8058 91.2213 22.9691 83.3778 33.3732 77.7176C43.9373 72.0573 55.9421 69.2272 69.3874 69.2272C82.0324 69.2272 93.0767 71.8147 102.52 76.9898C112.124 82.1649 119.327 89.6041 124.129 99.3073L101.08 112.892C97.3984 106.908 92.7566 102.461 87.1544 99.5499C81.7122 96.4772 75.7099 94.9408 69.1473 94.9408C57.9429 94.9408 48.6592 98.6604 41.2963 106.1C33.9334 113.377 30.2519 123.161 30.2519 135.452C30.2519 147.743 33.8534 157.608 41.0562 165.047C48.4191 172.324 57.7828 175.963 69.1473 175.963C75.7099 175.963 81.7122 174.508 87.1544 171.597C92.7566 168.524 97.3984 163.996 101.08 158.012L124.129 171.597C119.167 181.3 111.884 188.82 102.28 194.157C92.8366 199.332 81.8723 201.919 69.3874 201.919Z" fill="black"/>
<path d="M266.323 70.6827V200.221H237.752V183.483C232.79 189.628 226.628 194.237 219.265 197.31C212.062 200.383 204.059 201.919 195.255 201.919C182.77 201.919 171.566 199.17 161.642 193.671C151.878 188.173 144.195 180.41 138.593 170.384C133.151 160.357 130.43 148.713 130.43 135.452C130.43 122.191 133.151 110.628 138.593 100.763C144.195 90.7361 151.878 82.9735 161.642 77.475C171.566 71.9765 182.77 69.2272 195.255 69.2272C203.578 69.2272 211.181 70.6827 218.064 73.5937C225.107 76.5047 231.189 80.7903 236.311 86.4505V70.6827H266.323ZM198.616 175.963C209.661 175.963 218.784 172.243 225.987 164.804C233.19 157.365 236.792 147.581 236.792 135.452C236.792 123.323 233.19 113.539 225.987 106.1C218.784 98.6604 209.661 94.9408 198.616 94.9408C187.572 94.9408 178.449 98.6604 171.246 106.1C164.203 113.539 160.681 123.323 160.681 135.452C160.681 147.581 164.203 157.365 171.246 164.804C178.449 172.243 187.572 175.963 198.616 175.963Z" fill="black"/>
<path d="M356.73 69.2272C372.896 69.2272 385.862 73.998 395.625 83.5395C405.389 93.0811 410.271 107.232 410.271 125.991V200.221H380.259V129.873C380.259 118.552 377.618 110.062 372.336 104.402C367.054 98.5796 359.531 95.6686 349.767 95.6686C338.723 95.6686 330 99.0647 323.597 105.857C317.194 112.488 313.993 122.11 313.993 134.724V200.221H283.981V70.6827H312.553V87.4208C317.515 81.4371 323.757 76.909 331.28 73.8363C338.803 70.7636 347.286 69.2272 356.73 69.2272Z" fill="black"/>
<path d="M498.763 193.186C495.242 196.097 490.92 198.281 485.798 199.736C480.836 201.191 475.554 201.919 469.952 201.919C455.866 201.919 444.982 198.2 437.299 190.76C429.616 183.321 425.774 172.486 425.774 158.255V42.0581H455.786V71.653H490.12V95.9112H455.786V157.527C455.786 163.834 457.307 168.686 460.348 172.082C463.549 175.316 467.951 176.933 473.553 176.933C480.276 176.933 485.878 175.154 490.36 171.597L498.763 193.186Z" fill="black"/>
<path d="M570.73 176.206C584.655 176.206 596.26 171.516 605.543 162.136L621.39 180.815C615.787 187.769 608.584 193.025 599.781 196.582C590.978 200.14 581.054 201.919 570.009 201.919C555.924 201.919 543.519 199.089 532.795 193.429C522.07 187.769 513.747 179.925 507.825 169.898C502.062 159.71 499.181 148.228 499.181 135.452C499.181 122.838 501.982 111.517 507.585 101.491C513.347 91.3021 521.19 83.3778 531.114 77.7176C541.198 72.0573 552.562 69.2272 565.207 69.2272C577.212 69.2272 588.096 71.8956 597.86 77.2324C607.784 82.4075 615.627 89.9275 621.39 99.7925C627.152 109.496 630.033 120.897 630.033 133.996L531.834 153.403C534.875 160.842 539.757 166.502 546.48 170.384C553.203 174.265 561.286 176.206 570.73 176.206ZM565.207 93.4854C554.163 93.4854 545.199 97.1241 538.317 104.402C531.594 111.679 528.233 121.463 528.233 133.754V133.996L600.741 119.927C598.661 112.002 594.419 105.614 588.016 100.763C581.774 95.9112 574.171 93.4854 565.207 93.4854Z" fill="black"/>
<path d="M715.049 176.206C728.974 176.206 740.579 171.516 749.863 162.136L765.709 180.815C760.107 187.769 752.904 193.025 744.1 196.582C735.297 200.14 725.373 201.919 714.329 201.919C700.243 201.919 687.838 199.089 677.114 193.429C666.39 187.769 658.066 179.925 652.144 169.898C646.382 159.71 643.501 148.228 643.501 135.452C643.501 122.838 646.302 111.517 651.904 101.491C657.666 91.3021 665.509 83.3778 675.433 77.7176C685.517 72.0573 696.882 69.2272 709.527 69.2272C721.531 69.2272 732.416 71.8956 742.18 77.2324C752.104 82.4075 759.947 89.9275 765.709 99.7925C771.471 109.496 774.352 120.897 774.352 133.996L676.154 153.403C679.195 160.842 684.077 166.502 690.799 170.384C697.522 174.265 705.605 176.206 715.049 176.206ZM709.527 93.4854C698.482 93.4854 689.519 97.1241 682.636 104.402C675.914 111.679 672.552 121.463 672.552 133.754V133.996L745.061 119.927C742.98 112.002 738.738 105.614 732.336 100.763C726.093 95.9112 718.49 93.4854 709.527 93.4854Z" fill="black"/>
<path d="M859.459 69.2272C875.625 69.2272 888.59 73.998 898.354 83.5395C908.118 93.0811 913 107.232 913 125.991V200.221H882.988V129.873C882.988 118.552 880.347 110.062 875.065 104.402C869.783 98.5796 862.26 95.6686 852.496 95.6686C841.452 95.6686 832.728 99.0647 826.326 105.857C819.923 112.488 816.722 122.11 816.722 134.724V200.221H786.71V70.6827H815.281V87.4208C820.243 81.4371 826.486 76.909 834.009 73.8363C841.532 70.7636 850.015 69.2272 859.459 69.2272Z" fill="black"/>
<path d="M254.951 299.29V231.136H261.244V293.699H294.088V299.29H254.951Z" fill="black"/>
<path d="M372.544 299.29H365.948L391.018 231.136H397.749L422.819 299.29H416.224L394.619 239.222H394.148L372.544 299.29ZM377.288 273.166H411.479V278.757H377.288V273.166Z" fill="black"/>
<path d="M494.469 299.29V231.136H517.722C522.209 231.136 525.944 231.912 528.928 233.465C531.935 235.018 534.189 237.137 535.692 239.821C537.195 242.506 537.947 245.556 537.947 248.973C537.947 251.813 537.465 254.242 536.5 256.261C535.535 258.28 534.223 259.91 532.563 261.153C530.903 262.395 529.052 263.294 527.01 263.848V264.381C529.231 264.536 531.385 265.312 533.471 266.71C535.558 268.086 537.274 270.016 538.62 272.501C539.966 274.985 540.639 277.958 540.639 281.419C540.639 284.858 539.865 287.931 538.317 290.637C536.769 293.322 534.391 295.44 531.183 296.993C527.997 298.524 523.937 299.29 519.001 299.29H494.469ZM500.762 293.699H519.001C524.318 293.699 528.244 292.534 530.779 290.205C533.337 287.875 534.615 284.947 534.615 281.419C534.615 278.823 533.976 276.472 532.697 274.364C531.441 272.234 529.657 270.548 527.347 269.306C525.058 268.063 522.366 267.442 519.27 267.442H500.762V293.699ZM500.762 261.918H518.294C521.009 261.918 523.387 261.363 525.428 260.254C527.47 259.145 529.063 257.614 530.207 255.662C531.351 253.709 531.923 251.48 531.923 248.973C531.923 245.357 530.734 242.417 528.356 240.154C525.978 237.869 522.433 236.726 517.722 236.726H500.762V261.918Z" fill="black"/>
<path d="M653.083 248.174C652.702 244.38 651.008 241.363 648.002 239.122C644.995 236.882 641.215 235.761 636.661 235.761C633.453 235.761 630.626 236.305 628.181 237.392C625.758 238.479 623.851 239.988 622.46 241.918C621.091 243.826 620.407 246 620.407 248.44C620.407 250.237 620.8 251.813 621.585 253.166C622.37 254.519 623.424 255.684 624.748 256.66C626.094 257.614 627.575 258.435 629.19 259.123C630.828 259.81 632.477 260.387 634.137 260.853L641.406 262.916C643.604 263.515 645.803 264.281 648.002 265.213C650.2 266.144 652.208 267.32 654.025 268.74C655.865 270.138 657.334 271.857 658.434 273.898C659.555 275.917 660.116 278.346 660.116 281.186C660.116 284.825 659.163 288.097 657.256 291.003C655.349 293.91 652.612 296.217 649.045 297.925C645.478 299.611 641.204 300.454 636.223 300.454C631.535 300.454 627.463 299.689 624.008 298.158C620.553 296.605 617.838 294.464 615.864 291.735C613.89 289.007 612.779 285.845 612.532 282.251H618.994C619.218 284.936 620.115 287.21 621.686 289.073C623.256 290.937 625.298 292.357 627.81 293.333C630.323 294.287 633.127 294.764 636.223 294.764C639.656 294.764 642.707 294.198 645.377 293.067C648.069 291.913 650.178 290.316 651.703 288.274C653.251 286.211 654.025 283.815 654.025 281.086C654.025 278.779 653.419 276.849 652.208 275.296C650.997 273.721 649.303 272.401 647.127 271.336C644.973 270.271 642.471 269.328 639.622 268.507L631.378 266.111C625.971 264.514 621.776 262.306 618.792 259.489C615.808 256.671 614.316 253.077 614.316 248.707C614.316 245.046 615.303 241.829 617.277 239.056C619.274 236.26 621.966 234.086 625.354 232.533C628.764 230.958 632.589 230.171 636.829 230.171C641.114 230.171 644.906 230.947 648.203 232.5C651.501 234.053 654.115 236.194 656.044 238.923C657.996 241.629 659.039 244.713 659.174 248.174H653.083Z" fill="black"/>
</svg>
